# xmcd
#
# Track frame offsets:
#	150
#	17371
#	33134
#	49642
#	65653
#	78479
#	93605
#	107653
#
# Disc length: 1663 seconds
#
# Revision: 0
# Processed by: cddbd v1.5.2PL0 Copyright (c) Steve Scherf et al.
# Submitted via: EasyCDDAExtractor 16.0.6.1
#
DISCID=59067d08
DTITLE=Ty Waters - Only human
DYEAR=2017
DGENRE=Vocal
TTITLE0=Only human 
TTITLE1=Feel the fun 
TTITLE2=It doesn't have to rain today 
TTITLE3=Nervous 
TTITLE4=Never gonna give it up 
TTITLE5=History
TTITLE6=Curiosity killed the cat 
TTITLE7=Remember 
EXTD=
EXTT0=
EXTT1=
EXTT2=
EXTT3=
EXTT4=
EXTT5=
EXTT6=
EXTT7=
PLAYORDER=
